<svg width="160px" height="160px" viewBox="0 0 160 160" version="1.1" xmlns="http://www.w3.org/2000/svg" xmlns:xlink="http://www.w3.org/1999/xlink">
  <title>Maintenance Mode</title>
  <desc></desc>
  <defs></defs>
  <g id="Page-1" stroke="none" stroke-width="1" fill="none" fill-rule="evenodd">
    <g id="PAGES---1680---Temp-down" transform="translate(-743.000000, -7.000000)" fill="#FEFEFE">
      <path d="M896.594996,159.346855 C896.594996,160.036899 896.036758,160.595841 895.346714,160.595841 C894.65667,160.595841 894.098432,160.036899 894.098432,159.346855 L891.599824,159.346784 C891.599824,160.036899 891.041586,160.595841 890.351542,160.595841 C889.661498,160.595841 889.10326,160.036899 889.10326,159.346855 L886.605357,159.346784 C886.605357,160.036899 886.046414,160.595841 885.35637,160.595841 C884.666326,160.595841 884.108088,160.036899 884.108088,159.346855 L881.610185,159.346784 C881.610185,160.036899 881.051947,160.595841 880.361903,160.595841 C879.671859,160.595841 879.113621,160.036899 879.113621,159.346855 L876.614943,159.346784 C876.614943,160.036899 876.056705,160.595841 875.366661,160.595841 C874.676617,160.595841 874.118379,160.036899 874.118379,159.346855 L871.620476,159.346784 C871.620476,160.036899 871.061533,160.595841 870.371489,160.595841 C869.681445,160.595841 869.123207,160.036899 869.123207,159.346855 L866.625304,159.346784 C866.625304,160.036899 866.067066,160.595841 865.377022,160.595841 C864.686978,160.595841 864.128035,160.036899 864.128035,159.346855 L861.630132,159.346784 C861.630132,160.036899 861.071894,160.595841 860.38185,160.595841 C859.691806,160.595841 859.133568,160.036899 859.133568,159.346855 L856.63496,159.346784 C856.63496,160.036899 856.076722,160.595841 855.386678,160.595841 C854.696634,160.595841 854.138396,160.036899 854.138396,159.346855 L851.640423,159.346784 C851.640423,160.036899 851.082185,160.595841 850.392141,160.595841 C849.702097,160.595841 849.143154,160.036899 849.143154,159.346855 L846.645251,159.346784 C846.645251,160.036899 846.087013,160.595841 845.396969,160.595841 C844.706925,160.595841 844.148687,160.036899 844.148687,159.346855 L841.650079,159.346784 C841.650079,160.036899 841.091841,160.595841 840.401797,160.595841 C839.711753,160.595841 839.153515,160.036899 839.153515,159.346855 L836.655612,159.346784 C836.655612,160.036899 836.09667,160.595841 835.406626,160.595841 C834.716581,160.595841 834.158344,160.036899 834.158344,159.346855 L831.66037,159.346784 C831.66037,160.036899 831.102132,160.595841 830.412088,160.595841 C829.722044,160.595841 829.163806,160.036899 829.163806,159.346855 L826.665198,159.346784 C826.665198,160.036899 826.10696,160.595841 825.416916,160.595841 C824.726872,160.595841 824.168634,160.036899 824.168634,159.346855 L821.670731,159.346784 C821.670731,160.036899 821.111789,160.595841 820.421744,160.595841 C819.7317,160.595841 819.173463,160.036899 819.173463,159.346855 L816.675559,159.346784 C816.675559,160.036899 816.117322,160.595841 815.427278,160.595841 C814.737233,160.595841 814.178996,160.036899 814.178996,159.346855 L811.680388,159.346784 C811.680388,160.036899 811.12215,160.595841 810.432106,160.595841 C809.742062,160.595841 809.183824,160.036899 809.183824,159.346855 L806.685921,159.346784 C806.685921,160.036899 806.126978,160.595841 805.436934,160.595841 C804.74689,160.595841 804.188652,160.036899 804.188652,159.346855 L801.690678,159.346784 C801.690678,160.036899 801.132441,160.595841 800.442396,160.595841 C799.752352,160.595841 799.19341,160.036899 799.19341,159.346855 L796.695507,159.346784 C796.695507,160.036899 796.137269,160.595841 795.447225,160.595841 C794.757181,160.595841 794.198943,160.036899 794.198943,159.346855 L791.700335,159.346784 C791.700335,160.036899 791.142097,160.595841 790.452053,160.595841 C789.762009,160.595841 789.203771,160.036899 789.203771,159.346855 L786.705797,159.346784 C786.705797,160.036899 786.147559,160.595841 785.457515,160.595841 C784.767471,160.595841 784.208529,160.036899 784.208529,159.346855 L781.710626,159.346784 C781.710626,160.036899 781.152388,160.595841 780.462344,160.595841 C779.7723,160.595841 779.214062,160.036899 779.214062,159.346855 L776.715454,159.346784 C776.715454,160.036899 776.157216,160.595841 775.467172,160.595841 C774.777128,160.595841 774.21889,160.036899 774.21889,159.346855 L771.720987,159.346784 C771.720987,160.036899 771.162044,160.595841 770.472,160.595841 C769.781956,160.595841 769.223718,160.036899 769.223718,159.346855 L766.725815,159.346784 C766.725815,160.036899 766.167577,160.595841 765.477533,160.595841 C764.787489,160.595841 764.229251,160.036899 764.229251,159.346855 L761.730643,159.346784 C761.730643,160.036899 761.172405,160.595841 760.482361,160.595841 C759.792317,160.595841 759.234079,160.036899 759.234079,159.346855 L756.736106,159.346784 C756.736106,160.036899 756.177163,160.595841 755.487119,160.595841 C754.797075,160.595841 754.238837,160.036899 754.238837,159.346855 L751.740934,159.346784 C751.740934,160.036899 751.182696,160.595841 750.492652,160.595841 C749.802608,160.595841 749.24437,160.036899 749.24437,159.346855 L745.497269,159.346784 L745.497269,164.342026 L900.341322,164.342026 L900.341322,159.346784 L896.594996,159.346784 Z M894.098432,134.371982 C894.098432,133.681938 894.65667,133.1237 895.346714,133.1237 C896.036758,133.1237 896.594996,133.681938 896.594996,134.371982 L900.341322,134.371982 L900.341322,129.37674 L745.497269,129.37674 L745.497269,134.371982 L749.24437,134.371982 C749.24437,133.681938 749.802608,133.1237 750.492652,133.1237 C751.182696,133.1237 751.740934,133.681938 751.740934,134.371982 L754.238837,134.371982 C754.238837,133.681938 754.797075,133.1237 755.487119,133.1237 C756.177163,133.1237 756.736106,133.681938 756.736106,134.371982 L759.234079,134.371982 C759.234079,133.681938 759.792317,133.1237 760.482361,133.1237 C761.172405,133.1237 761.730643,133.681938 761.730643,134.371982 L764.229251,134.371982 C764.229251,133.681938 764.787489,133.1237 765.477533,133.1237 C766.167577,133.1237 766.725815,133.681938 766.725815,134.371982 L769.223718,134.371982 C769.223718,133.681938 769.781956,133.1237 770.472,133.1237 C771.162044,133.1237 771.720987,133.681938 771.720987,134.371982 L774.21889,134.371982 C774.21889,133.681938 774.777128,133.1237 775.467172,133.1237 C776.157216,133.1237 776.715454,133.681938 776.715454,134.371982 L779.214062,134.371982 C779.214062,133.681938 779.7723,133.1237 780.462344,133.1237 C781.152388,133.1237 781.710626,133.681938 781.710626,134.371982 L784.208529,134.371982 C784.208529,133.681938 784.767471,133.1237 785.457515,133.1237 C786.147559,133.1237 786.705797,133.681938 786.705797,134.371982 L789.203771,134.371982 C789.203771,133.681938 789.762009,133.1237 790.452053,133.1237 C791.142097,133.1237 791.700335,133.681938 791.700335,134.371982 L794.198943,134.371982 C794.198943,133.681938 794.757181,133.1237 795.447225,133.1237 C796.137269,133.1237 796.695507,133.681938 796.695507,134.371982 L799.19341,134.371982 C799.19341,133.681938 799.752352,133.1237 800.442396,133.1237 C801.132441,133.1237 801.690678,133.681938 801.690678,134.371982 L804.188652,134.371982 C804.188652,133.681938 804.74689,133.1237 805.436934,133.1237 C806.126978,133.1237 806.685921,133.681938 806.685921,134.371982 L809.183824,134.371982 C809.183824,133.681938 809.742062,133.1237 810.432106,133.1237 C811.12215,133.1237 811.680388,133.681938 811.680388,134.371982 L814.178996,134.371982 C814.178996,133.681938 814.737233,133.1237 815.427278,133.1237 C816.117322,133.1237 816.675559,133.681938 816.675559,134.371982 L819.173463,134.371982 C819.173463,133.681938 819.7317,133.1237 820.421744,133.1237 C821.111789,133.1237 821.670731,133.681938 821.670731,134.371982 L824.168634,134.371982 C824.168634,133.681938 824.726872,133.1237 825.416916,133.1237 C826.10696,133.1237 826.665198,133.681938 826.665198,134.371982 L829.163806,134.371982 C829.163806,133.681938 829.722044,133.1237 830.412088,133.1237 C831.102132,133.1237 831.66037,133.681938 831.66037,134.371982 L834.158344,134.371982 C834.158344,133.681938 834.716581,133.1237 835.406626,133.1237 C836.09667,133.1237 836.655612,133.681938 836.655612,134.371982 L839.153515,134.371982 C839.153515,133.681938 839.711753,133.1237 840.401797,133.1237 C841.091841,133.1237 841.650079,133.681938 841.650079,134.371982 L844.148687,134.371982 C844.148687,133.681938 844.706925,133.1237 845.396969,133.1237 C846.087013,133.1237 846.645251,133.681938 846.645251,134.371982 L849.143154,134.371982 C849.143154,133.681938 849.702097,133.1237 850.392141,133.1237 C851.082185,133.1237 851.640423,133.681938 851.640423,134.371982 L854.138396,134.371982 C854.138396,133.681938 854.696634,133.1237 855.386678,133.1237 C856.076722,133.1237 856.63496,133.681938 856.63496,134.371982 L859.133568,134.371982 C859.133568,133.681938 859.691806,133.1237 860.38185,133.1237 C861.071894,133.1237 861.630132,133.681938 861.630132,134.371982 L864.128035,134.371982 C864.128035,133.681938 864.686978,133.1237 865.377022,133.1237 C866.067066,133.1237 866.625304,133.681938 866.625304,134.371982 L869.123207,134.371982 C869.123207,133.681938 869.681445,133.1237 870.371489,133.1237 C871.061533,133.1237 871.620476,133.681938 871.620476,134.371982 L874.118379,134.371982 C874.118379,133.681938 874.676617,133.1237 875.366661,133.1237 C876.056705,133.1237 876.614943,133.681938 876.614943,134.371982 L879.113621,134.371982 C879.113621,133.681938 879.671859,133.1237 880.361903,133.1237 C881.051947,133.1237 881.610185,133.681938 881.610185,134.371982 L884.108088,134.371982 C884.108088,133.681938 884.666326,133.1237 885.35637,133.1237 C886.046414,133.1237 886.605357,133.681938 886.605357,134.371982 L889.10326,134.371982 C889.10326,133.681938 889.661498,133.1237 890.351542,133.1237 C891.041586,133.1237 891.599824,133.681938 891.599824,134.371982 L894.098432,134.371982 Z M821.670731,25.2143952 L824.168634,22.7161396 L824.168634,18.7557004 L821.670731,21.2536035 L821.670731,25.2143952 Z M821.670731,28.7460252 L821.670731,30.7262379 C821.670731,31.4169868 821.111789,31.9752247 820.421744,31.9752247 C819.7317,31.9752247 819.173463,31.4169868 819.173463,30.7262379 L819.173463,8.24870485 C819.173463,7.55866079 819.7317,7.00042291 820.421744,7.00042291 C821.111789,7.00042291 821.670731,7.55866079 821.670731,8.24870485 L821.670731,10.2295847 L824.524319,7.37559463 C824.637556,7.25984116 824.773167,7.16606738 824.924203,7.1012224 C825.387384,6.90708299 825.930268,6.9967401 826.300159,7.36609692 C826.550011,7.61631131 826.671691,7.94610051 826.665198,8.27382175 L826.665198,15.7164514 C826.665527,15.7330533 826.665527,15.7496604 826.665198,15.7662622 L826.665198,23.2089028 C826.665527,23.2255091 826.665527,23.2421208 826.665198,23.2587274 L826.665198,30.7262379 C826.665198,31.4169868 826.10696,31.9752247 825.416916,31.9752247 C824.726872,31.9752247 824.168634,31.4169868 824.168634,30.7262379 L824.168634,26.2484746 L821.670731,28.7460252 Z M821.670731,17.7220252 L824.168634,15.2237696 L824.168634,11.2632599 L821.670731,13.761163 L821.670731,17.7220252 Z M844.148194,151.854273 L801.691101,151.854273 C801.000352,151.854273 800.442115,151.296035 800.442115,150.605286 L800.442115,143.112775 C800.442115,142.422731 801.000352,141.864493 801.691101,141.864493 L844.148194,141.864493 C844.838238,141.864493 845.397181,142.422731 845.397181,143.112775 L845.397181,150.605286 C845.397181,151.296035 844.838238,151.854273 844.148194,151.854273 Z M802.939383,149.357004 L842.899207,149.357004 L842.899207,144.361762 L802.939383,144.361762 L802.939383,149.357004 Z M807.983683,148.108229 C807.295048,148.108229 806.722714,147.549991 806.722714,146.859947 C806.722714,146.169198 807.268264,145.61096 807.959013,145.61096 L807.983683,145.61096 C808.673727,145.61096 809.231965,146.169198 809.231965,146.859947 C809.231965,147.549991 808.673727,148.108229 807.983683,148.108229 Z M812.97822,148.108229 C812.290291,148.108229 811.717251,147.549991 811.717251,146.859947 C811.717251,146.169198 812.263507,145.61096 812.954256,145.61096 L812.97822,145.61096 C813.668264,145.61096 814.226502,146.169198 814.226502,146.859947 C814.226502,147.549991 813.668264,148.108229 812.97822,148.108229 Z M817.973392,148.108229 C817.285463,148.108229 816.712423,147.549991 816.712423,146.859947 C816.712423,146.169198 817.258678,145.61096 817.948722,145.61096 L817.973392,145.61096 C818.663436,145.61096 819.221674,146.169198 819.221674,146.859947 C819.221674,147.549991 818.663436,148.108229 817.973392,148.108229 Z M822.968564,148.108229 C822.27993,148.108229 821.707595,147.549991 821.707595,146.859947 C821.707595,146.169198 822.253145,145.61096 822.943894,145.61096 L822.968564,145.61096 C823.658608,145.61096 824.216846,146.169198 824.216846,146.859947 C824.216846,147.549991 823.658608,148.108229 822.968564,148.108229 Z M827.963031,148.108229 C827.275101,148.108229 826.702062,147.549991 826.702062,146.859947 C826.702062,146.169198 827.248317,145.61096 827.939066,145.61096 L827.963031,145.61096 C828.653075,145.61096 829.211313,146.169198 829.211313,146.859947 C829.211313,147.549991 828.653075,148.108229 827.963031,148.108229 Z M832.958273,148.108229 C832.270344,148.108229 831.697304,147.549991 831.697304,146.859947 C831.697304,146.169198 832.243559,145.61096 832.934308,145.61096 L832.958273,145.61096 C833.648317,145.61096 834.206555,146.169198 834.206555,146.859947 C834.206555,147.549991 833.648317,148.108229 832.958273,148.108229 Z M837.953445,148.108229 C837.264811,148.108229 836.692476,147.549991 836.692476,146.859947 C836.692476,146.169198 837.238731,145.61096 837.928775,145.61096 L837.953445,145.61096 C838.643489,145.61096 839.201727,146.169198 839.201727,146.859947 C839.201727,147.549991 838.643489,148.108229 837.953445,148.108229 Z M811.939278,86.9122467 C811.373991,86.9122467 810.858749,86.5259912 810.724828,85.9501322 C810.529586,85.1311013 810.432317,84.26837 810.432317,83.3880176 C810.432317,82.1552423 810.616987,80.9245815 810.985621,79.7312775 C811.225269,78.7846696 812.127471,78.083348 813.1643,78.083348 C813.729586,78.083348 814.285004,78.298326 814.688176,78.6740088 L817.397604,80.6405286 C817.954432,81.0479295 818.075665,81.8288987 817.668264,82.3857269 C817.263683,82.9432599 816.478485,83.0644934 815.925181,82.6577974 L813.292581,80.7356828 C813.04941,81.6336564 812.929586,82.5111894 812.929586,83.3880176 C812.929586,84.0759471 813.005004,84.744141 813.153727,85.3770925 C813.313022,86.0474009 812.897868,86.7205286 812.227559,86.8798238 C812.129586,86.901674 812.034432,86.9122467 811.939278,86.9122467 Z M823.053991,94.4118062 C820.517251,94.4118062 818.107383,93.8317181 816.080247,92.7342731 C815.473374,92.405815 815.249233,91.6474009 815.577692,91.0419383 C815.909674,90.4343612 816.665974,90.2144493 817.270731,90.5393833 C818.931348,91.4387665 820.9317,91.9145374 823.053991,91.9145374 C828.487648,91.9145374 832.909145,87.4930396 832.909145,82.0565639 C832.909145,80.7857269 832.821744,79.4528634 832.182449,78.3215859 C832.048529,78.0452863 831.522009,77.3552423 829.060687,74.9700441 C828.307207,74.2362996 827.565709,73.5335683 827.031436,73.0359471 L826.709322,72.7321586 C826.268088,72.314185 826.19267,71.6389427 826.529586,71.1321586 L830.411877,65.3129515 L830.411877,64.442467 L815.427559,64.442467 L815.427559,65.3961233 L819.729233,73.9825551 L824.870379,78.714185 C825.331348,79.1871366 825.64148,79.6685463 825.851524,80.2042291 C826.102449,80.8470485 825.785269,81.5709251 825.141744,81.8225551 C824.500335,82.0784141 823.775048,81.7562996 823.524123,81.1134802 C823.436722,80.8886344 823.304916,80.6849339 823.134344,80.5080176 L818.080599,75.9356828 C817.77822,75.6727753 817.542097,75.3104846 817.417339,74.9066079 L813.061392,66.2511013 C812.976106,66.0762996 812.929586,65.8845815 812.929586,65.6914537 L812.929586,63.1934802 C812.929586,62.5034361 813.488529,61.9451982 814.178573,61.9451982 L831.660863,61.9451982 C832.350907,61.9451982 832.909145,62.5034361 832.909145,63.1934802 L832.909145,65.6914537 C832.909145,65.9374449 832.836546,66.1785022 832.699101,66.3836123 L829.192493,71.6396476 C829.66615,72.0851101 830.231436,72.6236123 830.799542,73.1797357 C833.709145,75.9970044 834.163066,76.6750661 834.39778,77.1712775 C835.280247,78.7275771 835.406414,80.4445815 835.406414,82.0565639 C835.406414,88.8696035 829.865621,94.4118062 823.053991,94.4118062 Z M831.660722,59.4473656 C831.548652,59.4473656 831.431648,59.431859 831.316758,59.400141 C830.653498,59.2098326 830.270062,58.5183789 830.461075,57.8558238 L835.297022,40.9289515 L830.992529,34.4725639 L814.846626,34.4725639 L810.541427,40.9289515 L815.378079,57.8558238 C815.568388,58.5183789 815.185656,59.2098326 814.522396,59.400141 C813.848564,59.5841057 813.166273,59.2020793 812.978079,58.5416388 L807.983542,41.059348 C807.881339,40.7069251 807.941956,40.3284229 808.144247,40.0232247 L813.139489,32.5307137 C813.371383,32.1839295 813.761163,31.9752952 814.178432,31.9752952 L831.660722,31.9752952 C832.077991,31.9752952 832.468476,32.1839295 832.699665,32.5307137 L837.694907,40.0232247 C837.897198,40.3284229 837.95852,40.7069251 837.855612,41.059348 L832.86037,58.5416388 C832.704599,59.0900088 832.204159,59.4473656 831.660722,59.4473656 Z M814.14904,45.1356828 C813.829744,45.1356828 813.510449,45.0137445 813.265868,44.7698678 C812.778819,44.2821145 812.778819,43.4919824 813.265868,43.0042291 L820.787982,35.48 C821.275736,34.9922467 822.065868,34.9922467 822.553621,35.48 C823.041374,35.9677533 823.041374,36.7578855 822.553621,37.2456388 L815.032211,44.7698678 C814.78763,45.0137445 814.468335,45.1356828 814.14904,45.1356828 Z M816.675912,53.2039119 C816.356617,53.2039119 816.037322,53.0819736 815.79274,52.8380969 C815.305692,52.3503436 815.305692,51.5595066 815.79274,51.0724581 L829.528775,37.3357181 C830.017233,36.8479648 830.807366,36.8479648 831.294414,37.3357181 C831.782872,37.8234714 831.782872,38.6136035 831.294414,39.1020617 L817.559084,52.8380969 C817.314502,53.0819736 816.995207,53.2039119 816.675912,53.2039119 Z M821.029533,59.4473656 C820.710238,59.4473656 820.390238,59.3254273 820.146361,59.0815507 C819.658608,58.5937974 819.658608,57.8036652 820.146361,57.3159119 L830.777551,46.6847225 C831.265304,46.1969692 832.056141,46.1969692 832.543894,46.6847225 C833.030943,47.1717709 833.030943,47.9626079 832.543894,48.4503612 L821.912,59.0815507 C821.668123,59.3254273 821.348828,59.4473656 821.029533,59.4473656 Z M901.590308,136.869251 L744.248987,136.869251 C743.558238,136.869251 743,136.311013 743,135.620264 L743,128.128458 C743,127.437709 743.558238,126.879471 744.248987,126.879471 L901.590308,126.879471 C902.280352,126.879471 902.839295,127.437709 902.839295,128.128458 L902.839295,135.620264 C902.839295,136.311013 902.280352,136.869251 901.590308,136.869251 Z M901.590308,166.839295 L744.248987,166.839295 C743.558238,166.839295 743,166.281057 743,165.590308 L743,158.097797 C743,157.408458 743.558238,156.849515 744.248987,156.849515 L901.590308,156.849515 C902.280352,156.849515 902.839295,157.408458 902.839295,158.097797 L902.839295,165.590308 C902.839295,166.281057 902.280352,166.839295 901.590308,166.839295 Z M751.741286,154.352035 C751.051242,154.352035 750.493004,153.793093 750.493004,153.103753 L750.493004,140.616 C750.493004,139.925251 751.051242,139.367013 751.741286,139.367013 C752.43133,139.367013 752.989568,139.925251 752.989568,140.616 L752.989568,153.103753 C752.989568,153.793093 752.43133,154.352035 751.741286,154.352035 Z M894.098079,154.352035 C893.408035,154.352035 892.849093,153.793093 892.849093,153.103753 L892.849093,140.616 C892.849093,139.925251 893.408035,139.367013 894.098079,139.367013 C894.788123,139.367013 895.346361,139.925251 895.346361,140.616 L895.346361,153.103753 C895.346361,153.793093 894.788123,154.352035 894.098079,154.352035 Z M761.730925,124.382273 C761.329163,124.382273 760.933744,124.187031 760.691982,123.82615 C760.309251,123.252405 760.465022,122.477075 761.038767,122.094344 L820.97815,82.1345198 C821.546256,81.7531982 822.324405,81.9054449 822.709956,82.4805991 C823.092687,83.0550485 822.936916,83.829674 822.363172,84.2124053 L762.423789,124.172229 C762.21163,124.313198 761.970573,124.382273 761.730925,124.382273 Z M884.107736,124.382273 C883.876546,124.382273 883.641833,124.318837 883.434608,124.184916 L833.485004,92.2166344 C832.904211,91.8465903 832.733639,91.0733744 833.107207,90.4925815 C833.475137,89.9103789 834.25822,89.7447401 834.83126,90.1147841 L884.780863,122.081656 C885.361656,122.45311 885.532229,123.225621 885.158661,123.806414 C884.922537,124.179982 884.517956,124.382273 884.107736,124.382273 Z"
        id="Combined-Shape"></path>
    </g>
  </g>
</svg>
